<svg version="1.1" id="Layer_1" xmlns="http://www.w3.org/2000/svg" xmlns:xlink="http://www.w3.org/1999/xlink" x="0px" y="0px"
	 width="100%" viewBox="0 0 254 246" enable-background="new 0 0 254 246" xml:space="preserve">
<path fill="#FEFEFF" opacity="1.000000" stroke="none" 
	d="
M177.000000,247.000000 
	C118.000000,247.000000 59.500008,247.000000 1.000008,247.000000 
	C1.000005,165.000015 1.000005,83.000015 1.000003,1.000019 
	C85.666649,1.000013 170.333298,1.000013 254.999969,1.000006 
	C254.999969,82.999977 254.999969,164.999954 254.999985,246.999969 
	C229.166672,247.000000 203.333328,247.000000 177.000000,247.000000 
M208.053741,198.136383 
	C207.014175,194.397781 208.579483,192.835266 212.305161,192.854126 
	C220.798737,192.897156 229.293335,192.920624 237.786346,192.835297 
	C243.126205,192.781677 244.978668,190.904907 245.005386,185.605667 
	C245.059998,174.780472 244.942307,163.953857 245.067108,153.129822 
	C245.118698,148.654282 243.195465,147.074585 238.901581,147.872787 
	C237.273941,148.175354 235.591354,148.278595 233.931778,148.298141 
	C219.688766,148.465805 209.666595,136.009445 212.848175,122.134392 
	C215.464752,110.723373 225.392044,104.543327 238.472916,106.182236 
	C243.891541,106.861145 244.986877,105.945541 245.005798,100.490936 
	C245.042191,89.998680 245.050522,79.506157 245.020218,69.013901 
	C245.003113,63.087696 243.534714,61.545033 237.719299,61.526073 
	C230.230804,61.501652 222.741943,61.647415 215.253067,61.674740 
	C207.143387,61.704330 206.512650,60.776958 209.197174,52.993996 
	C212.680542,42.895031 208.125519,31.713720 198.695450,27.215191 
	C190.770416,23.434618 181.876419,24.803774 175.538376,30.780029 
	C169.107483,36.843830 167.249847,45.607044 170.587372,54.135937 
	C172.931198,60.125515 171.937836,61.636513 165.571930,61.694843 
	C162.241364,61.725365 158.910049,61.727398 155.579498,61.697166 
	C151.455933,61.659740 149.285583,63.254028 148.758194,67.758133 
	C147.707520,76.731453 142.217728,80.951279 133.045670,81.040833 
	C127.739067,81.092636 122.371437,81.242371 117.146339,82.072411 
	C102.872833,84.339813 97.237549,91.419571 99.641129,106.857330 
	C101.096115,116.202408 104.201843,124.596207 96.686127,130.788147 
	C103.771080,143.455994 105.548027,156.193390 105.583878,169.889633 
	C108.776802,169.216751 111.790840,168.383026 114.861389,167.983490 
	C118.927246,167.454437 123.096100,166.657227 127.117043,167.046341 
	C138.092468,168.108429 146.119308,174.539764 148.328613,183.283798 
	C150.740997,192.831711 150.740997,192.831665 160.813385,192.851944 
	C162.145752,192.854630 163.478134,192.853882 164.810471,192.862091 
	C172.496445,192.909485 173.060074,193.726532 170.358566,200.896423 
	C167.256592,209.129120 169.597641,218.569901 176.104187,224.066925 
	C183.509766,230.323532 193.596664,230.747955 201.480682,225.134659 
	C209.897980,219.141693 212.486252,209.308304 208.053741,198.136383 
M86.382004,43.982224 
	C83.596573,29.810736 72.376579,22.335283 59.463314,26.047331 
	C47.552349,29.471254 42.074158,41.805008 46.768547,54.628658 
	C48.782436,60.130005 47.533588,61.724178 41.412491,61.690407 
	C33.089268,61.644485 24.765572,61.681076 16.442083,61.688419 
	C12.095697,61.692253 10.049523,63.970215 10.048002,68.222122 
	C10.044068,79.219536 9.983413,90.217552 10.083138,101.214073 
	C10.124967,105.826385 11.798138,106.787354 16.358578,106.460182 
	C20.276550,106.179100 24.469007,105.911964 28.157354,106.971283 
	C38.401127,109.913361 44.957603,121.313835 42.742073,131.211349 
	C40.018486,143.378525 30.177343,149.868835 17.267790,148.011826 
	C11.436086,147.172943 10.093232,148.249603 10.063250,154.114899 
	C10.009589,164.612152 9.994549,175.110275 10.069971,185.607269 
	C10.108289,190.940125 11.999747,192.807571 17.315561,192.856247 
	C25.146353,192.927948 32.978401,192.848190 40.809772,192.874969 
	C48.233780,192.900375 48.841316,193.777863 46.298103,200.579529 
	C42.082287,211.854507 47.546700,224.270142 58.553650,227.898254 
	C66.665977,230.572250 74.203918,229.097672 80.211975,222.949020 
	C86.447495,216.567596 88.007690,208.889496 84.887146,200.371506 
	C82.592010,194.106628 83.416801,192.881790 89.867081,192.869064 
	C102.697266,192.843735 115.527618,192.840607 128.357712,192.884384 
	C131.768799,192.896027 135.478668,193.139877 136.711304,189.133820 
	C137.954697,185.092789 136.354813,181.376816 133.018463,178.978333 
	C127.577042,175.066528 121.508621,173.015152 114.663643,174.657730 
	C111.749863,175.356949 108.855652,176.186127 105.906265,176.679749 
	C95.916733,178.351624 92.833328,175.245880 93.622826,165.107941 
	C93.804077,162.780441 92.555824,160.346939 91.999405,157.954315 
	C91.741615,156.845779 91.505859,155.725830 91.362564,154.598038 
	C90.805519,150.213943 90.373634,145.811127 89.673538,141.450867 
	C89.560097,140.744385 88.404625,140.061417 87.589493,139.642746 
	C86.112938,138.884369 84.533127,138.325424 82.990776,137.697083 
	C79.680847,136.348633 79.090469,134.523849 81.594940,131.683105 
	C84.122887,128.815750 86.687706,125.890984 88.624512,122.628181 
	C89.681419,120.847679 89.916122,118.278366 89.742912,116.127510 
	C89.306892,110.713203 87.812576,105.330170 87.850563,99.942398 
	C87.941872,86.989815 93.804642,79.233307 106.403008,76.176544 
	C113.765305,74.390205 121.506767,74.059196 129.105667,73.393021 
	C134.188782,72.947411 137.050186,71.008224 137.041214,67.058014 
	C137.030014,62.121048 133.546936,61.635155 129.798416,61.612854 
	C116.148376,61.531631 102.498268,61.461563 88.848160,61.394775 
	C83.974487,61.370926 83.016602,60.047153 84.220894,55.397762 
	C85.130646,51.885475 85.793274,48.309177 86.382004,43.982224 
z"/>
<path fill="#634DF5" opacity="1.000000" stroke="none" 
	d="
M208.213318,198.543167 
	C212.486252,209.308304 209.897980,219.141693 201.480682,225.134659 
	C193.596664,230.747955 183.509766,230.323532 176.104187,224.066925 
	C169.597641,218.569901 167.256592,209.129120 170.358566,200.896423 
	C173.060074,193.726532 172.496445,192.909485 164.810471,192.862091 
	C163.478134,192.853882 162.145752,192.854630 160.813385,192.851944 
	C150.740997,192.831665 150.740997,192.831711 148.328613,183.283798 
	C146.119308,174.539764 138.092468,168.108429 127.117043,167.046341 
	C123.096100,166.657227 118.927246,167.454437 114.861389,167.983490 
	C111.790840,168.383026 108.776802,169.216751 105.583878,169.889633 
	C105.548027,156.193390 103.771080,143.455994 96.686127,130.788147 
	C104.201843,124.596207 101.096115,116.202408 99.641129,106.857330 
	C97.237549,91.419571 102.872833,84.339813 117.146339,82.072411 
	C122.371437,81.242371 127.739067,81.092636 133.045670,81.040833 
	C142.217728,80.951279 147.707520,76.731453 148.758194,67.758133 
	C149.285583,63.254028 151.455933,61.659740 155.579498,61.697166 
	C158.910049,61.727398 162.241364,61.725365 165.571930,61.694843 
	C171.937836,61.636513 172.931198,60.125515 170.587372,54.135937 
	C167.249847,45.607044 169.107483,36.843830 175.538376,30.780029 
	C181.876419,24.803774 190.770416,23.434618 198.695450,27.215191 
	C208.125519,31.713720 212.680542,42.895031 209.197174,52.993996 
	C206.512650,60.776958 207.143387,61.704330 215.253067,61.674740 
	C222.741943,61.647415 230.230804,61.501652 237.719299,61.526073 
	C243.534714,61.545033 245.003113,63.087696 245.020218,69.013901 
	C245.050522,79.506157 245.042191,89.998680 245.005798,100.490936 
	C244.986877,105.945541 243.891541,106.861145 238.472916,106.182236 
	C225.392044,104.543327 215.464752,110.723373 212.848175,122.134392 
	C209.666595,136.009445 219.688766,148.465805 233.931778,148.298141 
	C235.591354,148.278595 237.273941,148.175354 238.901581,147.872787 
	C243.195465,147.074585 245.118698,148.654282 245.067108,153.129822 
	C244.942307,163.953857 245.059998,174.780472 245.005386,185.605667 
	C244.978668,190.904907 243.126205,192.781677 237.786346,192.835297 
	C229.293335,192.920624 220.798737,192.897156 212.305161,192.854126 
	C208.579483,192.835266 207.014175,194.397781 208.213318,198.543167 
z"/>
<path fill="#644EF5" opacity="1.000000" stroke="none" 
	d="
M86.473946,44.371796 
	C85.793274,48.309177 85.130646,51.885475 84.220894,55.397762 
	C83.016602,60.047153 83.974487,61.370926 88.848160,61.394775 
	C102.498268,61.461563 116.148376,61.531631 129.798416,61.612854 
	C133.546936,61.635155 137.030014,62.121048 137.041214,67.058014 
	C137.050186,71.008224 134.188782,72.947411 129.105667,73.393021 
	C121.506767,74.059196 113.765305,74.390205 106.403008,76.176544 
	C93.804642,79.233307 87.941872,86.989815 87.850563,99.942398 
	C87.812576,105.330170 89.306892,110.713203 89.742912,116.127510 
	C89.916122,118.278366 89.681419,120.847679 88.624512,122.628181 
	C86.687706,125.890984 84.122887,128.815750 81.594940,131.683105 
	C79.090469,134.523849 79.680847,136.348633 82.990776,137.697083 
	C84.533127,138.325424 86.112938,138.884369 87.589493,139.642746 
	C88.404625,140.061417 89.560097,140.744385 89.673538,141.450867 
	C90.373634,145.811127 90.805519,150.213943 91.362564,154.598038 
	C91.505859,155.725830 91.741615,156.845779 91.999405,157.954315 
	C92.555824,160.346939 93.804077,162.780441 93.622826,165.107941 
	C92.833328,175.245880 95.916733,178.351624 105.906265,176.679749 
	C108.855652,176.186127 111.749863,175.356949 114.663643,174.657730 
	C121.508621,173.015152 127.577042,175.066528 133.018463,178.978333 
	C136.354813,181.376816 137.954697,185.092789 136.711304,189.133820 
	C135.478668,193.139877 131.768799,192.896027 128.357712,192.884384 
	C115.527618,192.840607 102.697266,192.843735 89.867081,192.869064 
	C83.416801,192.881790 82.592010,194.106628 84.887146,200.371506 
	C88.007690,208.889496 86.447495,216.567596 80.211975,222.949020 
	C74.203918,229.097672 66.665977,230.572250 58.553650,227.898254 
	C47.546700,224.270142 42.082287,211.854507 46.298103,200.579529 
	C48.841316,193.777863 48.233780,192.900375 40.809772,192.874969 
	C32.978401,192.848190 25.146353,192.927948 17.315561,192.856247 
	C11.999747,192.807571 10.108289,190.940125 10.069971,185.607269 
	C9.994549,175.110275 10.009589,164.612152 10.063250,154.114899 
	C10.093232,148.249603 11.436086,147.172943 17.267790,148.011826 
	C30.177343,149.868835 40.018486,143.378525 42.742073,131.211349 
	C44.957603,121.313835 38.401127,109.913361 28.157354,106.971283 
	C24.469007,105.911964 20.276550,106.179100 16.358578,106.460182 
	C11.798138,106.787354 10.124967,105.826385 10.083138,101.214073 
	C9.983413,90.217552 10.044068,79.219536 10.048002,68.222122 
	C10.049523,63.970215 12.095697,61.692253 16.442083,61.688419 
	C24.765572,61.681076 33.089268,61.644485 41.412491,61.690407 
	C47.533588,61.724178 48.782436,60.130005 46.768547,54.628658 
	C42.074158,41.805008 47.552349,29.471254 59.463314,26.047331 
	C72.376579,22.335283 83.596573,29.810736 86.473946,44.371796 
z"/>
</svg>