<?xml version="1.0" standalone="no"?>
<!DOCTYPE svg PUBLIC "-//W3C//DTD SVG 20010904//EN"
 "http://www.w3.org/TR/2001/REC-SVG-20010904/DTD/svg10.dtd">
<svg version="1.0" xmlns="http://www.w3.org/2000/svg"
 width="743.000000pt" height="336.000000pt" viewBox="0 0 743.000000 336.000000"
 preserveAspectRatio="xMidYMid meet">

<g transform="translate(0.000000,336.000000) scale(0.100000,-0.100000)"
fill="#000000" stroke="none">
<path d="M536 2310 c-86 -44 -113 -94 -102 -189 4 -31 8 -69 9 -86 l2 -30
-158 -5 c-125 -4 -160 -8 -167 -20 -6 -9 -9 -95 -7 -200 l2 -185 85 -5 c65 -4
94 -10 122 -28 102 -64 122 -223 36 -295 -51 -43 -96 -58 -163 -55 -33 1 -66
-1 -73 -5 -9 -6 -12 -57 -12 -196 0 -163 2 -190 16 -202 12 -10 61 -15 168
-19 l151 -5 -3 -25 c-19 -163 -14 -188 49 -244 98 -89 246 -59 299 61 24 54
25 101 5 150 -27 64 -29 63 212 63 234 0 265 6 271 49 7 43 -17 78 -66 99 -74
31 -105 34 -170 18 -76 -20 -112 -20 -140 0 -19 13 -22 24 -22 79 0 35 -4 67
-10 70 -5 3 -10 21 -10 38 0 18 -7 40 -15 50 -8 11 -11 31 -8 51 4 29 2 33
-36 49 -25 11 -41 25 -41 35 0 9 17 39 38 66 20 27 41 55 47 62 6 9 4 29 -8
61 -38 107 -18 216 53 285 60 58 119 78 250 85 77 4 99 9 118 26 27 25 28 48
4 70 -16 15 -48 17 -246 17 -255 0 -251 -2 -222 73 20 54 20 80 -1 141 -35 97
-163 145 -257 96z"/>
<path d="M1698 2320 c-101 -30 -155 -153 -113 -255 24 -55 10 -65 -86 -65 -87
0 -119 -17 -119 -62 0 -33 -35 -85 -67 -101 -16 -8 -73 -17 -128 -20 -136 -7
-211 -35 -232 -86 -22 -52 -28 -144 -13 -181 23 -55 18 -111 -13 -151 -33 -44
-33 -46 -3 -70 19 -15 24 -31 30 -89 3 -39 13 -84 21 -100 10 -19 12 -43 8
-79 -7 -59 -1 -62 83 -36 62 19 98 19 162 0 67 -20 139 -90 147 -143 13 -81
15 -82 109 -82 103 0 125 -13 101 -60 -26 -50 -19 -129 14 -182 65 -102 173
-124 265 -54 79 61 104 141 69 227 -25 63 -12 69 163 69 110 0 144 3 153 14
13 15 17 369 5 388 -4 6 -27 8 -55 5 -59 -7 -127 11 -173 47 -41 31 -61 95
-53 170 7 73 29 110 82 141 37 22 58 27 122 28 l78 2 3 185 c3 235 16 220
-184 220 -166 0 -166 0 -139 80 31 93 1 169 -87 219 -54 31 -97 37 -150 21z"/>
<path d="M4007 1626 c-105 -44 -127 -80 -127 -206 0 -99 15 -137 68 -174 103
-71 209 -73 287 -4 34 30 35 32 35 108 0 67 -3 79 -17 83 -15 4 -121 2 -145
-2 -5 0 -8 -19 -8 -41 0 -39 1 -40 34 -40 63 0 58 -43 -6 -62 -36 -11 -45 -9
-83 11 -102 54 -100 198 3 243 42 19 46 19 95 3 l51 -17 24 27 c29 34 25 45
-20 68 -61 30 -125 31 -191 3z"/>
<path d="M6825 1636 c-72 -23 -113 -55 -136 -103 -49 -101 -34 -203 39 -271
193 -180 484 30 366 266 -20 40 -37 58 -77 81 -62 36 -136 46 -192 27z m145
-105 c38 -27 55 -98 38 -157 -17 -62 -53 -89 -118 -89 -58 0 -91 26 -116 92
-16 40 -16 46 0 86 18 47 49 82 81 90 32 8 88 -2 115 -22z"/>
<path d="M2467 1634 c-4 -4 -7 -101 -7 -215 l0 -209 25 -6 c14 -3 36 -3 50 0
l25 6 -2 213 -3 212 -40 3 c-23 2 -44 0 -48 -4z"/>
<path d="M2732 1423 l3 -218 45 0 45 0 3 88 c1 48 6 87 11 87 4 0 13 -17 19
-37 7 -21 24 -60 40 -88 26 -48 29 -50 73 -53 54 -4 54 -4 111 108 l43 85 5
-95 5 -95 40 0 40 0 3 218 2 218 -47 -3 c-45 -3 -49 -6 -72 -48 -14 -24 -44
-91 -67 -149 -23 -58 -46 -107 -51 -108 -9 -3 -69 116 -127 250 l-25 57 -51 0
-50 0 2 -217z"/>
<path d="M3509 1613 c-78 -202 -140 -387 -134 -401 3 -9 19 -12 47 -10 40 3
44 6 62 46 l19 42 67 0 66 0 15 -42 c15 -41 18 -43 62 -46 30 -2 47 1 47 8 0
25 -128 399 -142 418 -6 6 -30 12 -54 12 -39 0 -46 -3 -55 -27z m84 -215 c-2
-5 -16 -8 -30 -8 -24 0 -25 2 -18 37 4 21 9 42 13 47 6 11 42 -65 35 -76z"/>
<path d="M4430 1420 l0 -221 48 3 47 3 0 215 0 215 -47 3 -48 3 0 -221z"/>
<path d="M4707 1634 c-4 -4 -7 -101 -7 -215 l0 -207 40 -7 c21 -4 44 -4 50 0
6 4 10 55 10 128 0 145 -1 145 100 -21 l66 -107 49 0 50 0 3 218 2 218 -47 -3
-48 -3 -5 -125 -5 -125 -30 48 c-128 202 -127 202 -176 205 -25 2 -48 0 -52
-4z"/>
<path d="M5257 1634 c-4 -4 -7 -101 -7 -215 l0 -207 63 -7 c34 -3 103 -5 152
-3 l90 3 3 42 3 42 -108 3 -108 3 0 45 0 45 88 3 87 3 0 39 0 39 -87 3 -88 3
0 35 0 35 108 3 108 3 -3 42 -3 42 -146 3 c-80 1 -148 -1 -152 -4z"/>
<path d="M5716 1603 c-3 -21 -5 -118 -4 -216 2 -174 2 -178 24 -183 12 -3 33
-4 45 -2 23 3 24 8 27 79 l3 76 73 5 c85 6 130 30 152 84 19 46 17 83 -6 122
-32 53 -87 72 -207 72 l-101 0 -6 -37z m208 -63 c20 -7 26 -17 26 -39 0 -39
-26 -53 -88 -49 -45 3 -47 4 -50 36 -2 19 -1 40 2 48 6 16 72 19 110 4z"/>
<path d="M6194 1627 c-2 -7 -3 -105 -2 -217 l3 -205 48 -3 c26 -2 47 1 48 5 0
4 1 40 2 78 2 65 4 70 24 70 18 0 32 -17 65 -75 41 -71 45 -75 82 -78 52 -4
64 9 39 45 -11 15 -27 49 -36 74 l-17 46 33 36 c75 79 47 198 -54 227 -52 15
-229 13 -235 -3z m214 -93 c50 -34 16 -84 -57 -84 -48 0 -48 1 -54 36 -3 19
-3 42 0 50 7 19 82 18 111 -2z"/>
</g>
</svg>
